<svg xmlns="http://www.w3.org/2000/svg" viewBox="0 0 160 32">
  <g fill="currentColor">
    <!-- G -->
    <path d="M2 10.5C3.2 4.5 8.5 1 14.5 1c4 0 7.2 1.8 9 4.5l-4 2.5c-1.2-1.6-3-2.5-5-2.5-3.5 0-6.5 2.5-7.2 6-.7 3.5 1.3 6 4.8 6 2 0 3.8-.8 5.2-2.2l-1.5-1.8h-4l1-3h8.5L18 24h-3.5l.3-1.5C13 24 10.5 25 8 25 2.5 25 .5 20.5 2 10.5z"/>
    <!-- e -->
    <path d="M26 18c-.3 1.5.2 2.5 1.5 2.5 1 0 2-.5 2.8-1.5l2.5 2C31 23 28.8 25 26 25c-3.5 0-5.5-2.5-4.5-7 1-4.5 4.5-7 8-7 3.5 0 5 2.5 4 7l-.5 2H26zm5-3c.3-1.5-.3-2.5-1.8-2.5s-2.8 1-3.2 2.5h5z"/>
    <!-- r -->
    <path d="M36 11h4l-.5 2.5c1-1.8 2.5-3 4.5-3l-1 4c-2.5 0-4 1.5-4.5 4L37 25h-4l3-14z"/>
    <!-- a -->
    <path d="M46 18c-.3 1.5.5 2.5 2 2.5 1.2 0 2.5-.8 3-2l1-5c-1 .5-2.5 1-4 1.5-1.5.5-2.3 1.5-2 3zm9-7l-3 14h-3.5l.3-1.5C47 25 45 25.5 43 25.5c-3 0-4.5-2-4-5 .5-3 3-4.5 6-5.5l4-1.5c.2-1.2-.5-2-2-2-1.5 0-2.8.8-3.5 2l-3-2c1.5-2.5 4-3.5 7-3.5 3.5 0 5.5 2 5 5z"/>
    <!-- r -->
    <path d="M58 11h4l-.5 2.5c1-1.8 2.5-3 4.5-3l-1 4c-2.5 0-4 1.5-4.5 4L59 25h-4l3-14z"/>
    <!-- d -->
    <path d="M67 18c-.7 3.5.8 5 3 5s4-1.5 4.7-5c.7-3.5-.8-5-3-5s-4 1.5-4.7 5zm12-17l-5.5 24h-4l.5-2c-1.5 1.5-3 2.5-5 2.5-3.5 0-5.5-3-4.5-7.5 1-4.5 4-7.5 7.5-7.5 2 0 3.5.8 4 2.5L74 1h4z"/>
    <!-- o -->
    <path d="M82 18c-.7 3.5.8 5 3 5s4.2-1.5 5-5c.7-3.5-.8-5-3-5s-4.3 1.5-5 5zm-4.5 0c1-4.5 4.5-7 8.5-7s6.5 2.5 5.5 7c-1 4.5-4.5 7-8.5 7s-6.5-2.5-5.5-7z"/>
    <!-- F -->
    <path d="M99 1h14l-1 4.5h-9.5l-1 4.5h8l-1 4.5h-8l-2 10.5h-4.5L99 1z"/>
  </g>
</svg>